<?xml version="1.0" standalone="no"?>
<!DOCTYPE svg PUBLIC "-//W3C//DTD SVG 1.1//EN" "http://www.w3.org/Graphics/SVG/1.1/DTD/svg11.dtd">
<svg xmlns="http://www.w3.org/2000/svg" width="1024" height="1536" viewBox="0 0 1024 1536"><path fill="#737b82" d="M960 59h2c-.895 45.879-8.198 91.216-28 133l-1.027 2.208C926.563 207.92 918.83 220.445 909 232l-1.973 2.45C892.16 252.151 869.755 261.916 849 271c20.489-1.927 39.745-6.137 57-18-.954 6.09-3.957 10.718-7 16l-1.941 3.488C883.103 297.118 861.856 318.894 838 334l-2.008 1.278C815.452 348.098 792.288 354.23 769 360c15.441.34 30.502.093 45.822-2.02 1.018-.14 2.036-.278 3.084-.421l2.698-.397c2.398-.162 4.12.114 6.396.838-13.328 14.28-30.717 26.703-49.435 32.574l-2.69.801-2.887.873c-13.796 4.032-27.92 6.846-41.988 9.752 25.254.462 25.254.462 50.39-1.562 3.576-.434 7.013-.513 10.61-.438-.913 2.599-1.735 4.68-3.5 6.813L786 408h-2l-.723 1.707c-4.813 8.64-14.573 15.33-22.277 21.293l-1.66 1.285C724.053 459.4 685.935 470.283 643 479c4.38.84 8.523 1.129 12.98 1.133l1.98.003q2.067 0 4.133-.006c2.071-.005 4.142 0 6.214.007 6.846.003 13.596-.202 20.408-.914 2.831-.276 5.629-.322 8.472-.286l2.793.028L702 479l-1 3c-1.92 1.375-1.92 1.375-4.469 2.785l-2.88 1.594-3.151 1.683-3.262 1.745c-25.908 13.569-52.45 20.285-81.183 24.808-2.242.372-2.242.372-5.055 1.385 14.62 1.938 29.29 2.989 44 4-.667 1.84-.667 1.84-2 4-2.353 1.35-2.353 1.35-5.336 2.559l-3.374 1.399-3.665 1.48a1781 1781 0 0 0-7.664 3.199l-1.99.83c-16.208 6.799-32.164 14.362-47.786 22.412-2.58 1.323-5.168 2.627-7.755 3.933-14.831 7.543-29.176 15.742-43.4 24.355a1640 1640 0 0 1-8.17 4.907c-23.807 14.288-45.94 30.95-67.227 48.739l-3.008 2.5-2.586 2.175L439 644h-2c1.658-4.715 4.138-8.77 6.75-13l1.46-2.371C455.394 612.214 466.354 596.408 478 581l1.7-2.25c3.74-4.938 7.51-9.851 11.3-14.75l1.457-1.886a586 586 0 0 1 17.93-22.036 453 453 0 0 0 7.05-8.515c4.884-5.994 9.911-11.857 14.963-17.709q2.438-2.827 4.87-5.659A867 867 0 0 1 558 485l5.25-5.75q2.873-3.127 5.75-6.25l1.533-1.665c10.297-11.155 20.93-21.954 31.676-32.675q4.128-4.121 8.246-8.252l5.322-5.318 2.45-2.456c4.229-4.211 8.53-8.272 13.06-12.158 2.528-2.178 4.957-4.453 7.4-6.726 4.646-4.29 9.401-8.421 14.245-12.483A920 920 0 0 0 665.5 380.5c9.574-8.312 19.174-16.522 29.19-24.299 4.91-3.834 9.636-7.858 14.345-11.933a360 360 0 0 1 12.223-10.088 855 855 0 0 0 8.427-6.808 1358 1358 0 0 1 22.593-18.025q2.629-2.058 5.25-4.124c5.61-4.422 11.236-8.82 16.91-13.16 5.293-4.051 10.497-8.205 15.688-12.386 4.794-3.848 9.664-7.587 14.562-11.302a433 433 0 0 0 17.617-14.11 377 377 0 0 1 7.758-6.327c8.05-6.416 15.99-12.89 23.605-19.82A397 397 0 0 1 860 222.5l4-3.5 2.262-1.977c10.828-9.59 20.796-19.64 29.738-31.023l2.047-2.45c5.74-6.908 12.087-14.953 14.953-23.55l-1.13 1.344c-4.996 5.835-10.346 11.285-15.785 16.702q-2.278 2.272-4.548 4.554c-5.34 5.344-10.788 10.493-16.537 15.4a1251 1251 0 0 0-4.812 4.375c-5.25 4.731-10.694 9.184-16.188 13.625q-1.847 1.516-3.691 3.035a621 621 0 0 1-23.961 18.723c-5.067 3.765-10.081 7.598-15.098 11.43-5.568 4.25-11.14 8.494-16.75 12.687a1225 1225 0 0 0-15.227 11.602 1245 1245 0 0 1-6.421 4.921c-6.766 5.162-13.395 10.465-19.98 15.855A317 317 0 0 1 741 303.5c-6.921 5.12-13.55 10.587-20.21 16.039a823 823 0 0 1-15.052 12.004 596 596 0 0 0-20.66 16.844 453 453 0 0 1-8.515 7.05c-11.96 9.74-23.566 19.927-35.012 30.262a1288 1288 0 0 1-4.883 4.383c-9.813 8.772-19.556 17.66-28.775 27.058-1.827 1.796-3.712 3.468-5.658 5.134-4.01 3.487-7.8 7.147-11.551 10.91l-2 1.997a3324 3324 0 0 0-4.148 4.152q-3.14 3.148-6.292 6.286l-4.06 4.065-1.87 1.863c-3.766 3.786-7.34 7.692-10.822 11.74-1.743 2.001-3.583 3.87-5.492 5.713-3.17 3.128-6.126 6.369-9.027 9.746-1.938 2.214-3.924 4.376-5.925 6.533a301 301 0 0 0-13.876 16.084c-2.11 2.561-4.3 5.008-6.547 7.45-4.098 4.492-7.857 9.193-11.556 14.014a172 172 0 0 1-7.526 9.11c-3.395 3.845-6.523 7.841-9.606 11.938q-1.703 2.25-3.41 4.496l-1.758 2.316a903 903 0 0 1-7.016 9.016c-6.994 8.915-13.707 18.003-20.282 27.232q-2.038 2.858-4.084 5.71c-2.045 2.85-4.08 5.707-6.113 8.567a1632 1632 0 0 1-4.032 5.624C400.005 670.009 361.568 739.564 336 813l-1.14 3.268c-6.715 19.472-11.834 39.54-15.337 59.844C319 878 319 878 317 880c-2.116.515-2.116.515-4.734.895l-2.907.447-3.109.47c-9.178 1.52-17.736 3.323-26.25 7.188l-2.447 1.105c-13.159 6.05-25.084 13.06-36.553 21.895l-2.883 2.219c-3.402 2.687-6.73 5.457-10.058 8.234l-2.996 2.485-2.715 2.277C220 929 220 929 217 930c1.43-4.745 3.414-9.023 5.75-13.375l1.16-2.174c3.605-6.685 7.395-13.262 11.215-19.826l1.737-2.986c10.418-17.764 21.907-33.67 36.638-48.077 3.883-3.828 3.883-3.828 6.5-8.562.014-3.17.014-3.17-1-6-2.748-2.187-2.748-2.187-5.5-2.187-2.63.094-2.63.094-5.5 1.187-1.007 1.708-1.007 1.708-2 4a867 867 0 0 1-3.07 5.176c-4.7 7.848-9.118 15.82-13.43 23.886-3.997 7.461-8.12 14.749-12.7 21.865-3.582 5.607-6.817 11.385-10.05 17.198a481 481 0 0 1-14.187 23.813l-1.718 2.705A493 493 0 0 1 206 934l-1.461 2.333c-3.388 5.077-3.388 5.077-6.35 6.595-5.162 1.469-10.61 1.372-15.939 1.322l-2.535.023-2.45-.007-2.194-.007c-2.408-.301-4.016-.977-6.071-2.259-1.324-3.874-1.16-7.93-.562-11.937L170 928c2.77-.94 5.145-1.53 8-2 7.971-1.167 7.971-1.167 15.234-4.41 11.487-10.343 17.065-27.26 21.724-41.524 3.658-12.046 5.989-24.225 7.399-36.732.491-3.738.93-7.072 2.8-10.384 3.723-4.634 8.595-7.88 13.468-11.2 7.736-5.424 14.557-11.222 21.375-17.75a987 987 0 0 1 5.188-4.625c6.746-6.065 13.113-12.41 19.015-19.3 1.972-2.277 4.008-4.484 6.047-6.7 5.587-6.2 10.661-12.767 15.75-19.375l3.133-4.043C325.684 728.525 340.913 706.724 354 683l1.427-2.57c10.4-18.859 18.44-38.583 25.948-58.742C386.927 606.804 393.257 592.376 400 578l1.323-2.822c8.593-18.14 18.25-37.34 30.677-53.178l3-2 1 1c.122 1.503.178 3.012.205 4.52l.06 2.912.051 3.166.063 3.224q.098 5.12.183 10.24l.131 6.924q.162 8.507.307 17.014l.835-2.19c6.472-16.896 13.34-33.484 21.165-49.81l1.409-2.966C474.089 485.362 491.196 458.572 510 433l1.38-1.883c9.555-13 19.446-25.758 30.393-37.622 2.14-2.398 4.123-4.867 6.11-7.393 5.38-6.604 11.325-12.577 17.374-18.565q2.814-2.79 5.614-5.594l3.637-3.619 1.66-1.657a239 239 0 0 1 8.55-8.062l1.686-1.515L588 346h3l1 47 5.5-12.5c15.382-34.658 34.03-63.966 64.5-87.5q1.578-1.26 3.152-2.527c26.18-20.976 54.445-39.148 83.302-56.182 6.146-3.633 12.237-7.355 18.33-11.079 8.542-5.22 17.12-10.356 25.841-15.274C811.231 197.429 829.4 186.118 847 174l2.181-1.499A476 476 0 0 0 878 151l2.96-2.371c6.203-5.012 12.168-10.237 18.04-15.629l1.588-1.452c8.927-8.158 17.54-16.35 25.412-25.548l2.465-2.8c10.177-11.662 19-24.27 26.914-37.563 1.438-2.34 2.833-4.552 4.621-6.637"/><path fill="#737b82" d="m156.907 252.86 2.83-.01q4.725-.01 9.448-.011l6.75-.015q9.189-.019 18.378-.024 5.735-.005 11.47-.012 15.874-.019 31.748-.026h4.111l4.129-.002h2.068q16.598-.009 33.194-.046a17363 17363 0 0 1 34.063-.037q9.567 0 19.132-.025 8.996-.023 17.99-.01 3.307.002 6.613-.013c3.003-.013 6.005-.007 9.008.004l2.66-.025c3.532.029 5.867.054 9.019 1.735C381 256 381 256 381.875 258.875 382 262 382 262 381.312 264.75 380 267 380 267 378.208 268.11c-2.393.964-4.279 1.228-6.849 1.382l-2.721.19-2.888.193C351.78 270.998 338.93 273.1 327 281l-1.98 1.227c-5.148 3.704-7.665 9.03-10.54 14.554-4.102 10.085-3.774 21.9-3.752 32.604q-.007 2.089-.015 4.178c-.014 3.785-.016 7.57-.015 11.356-.002 4.099-.015 8.198-.027 12.297q-.027 10.641-.037 21.282c-.01 10.283-.032 20.567-.057 30.85a60625 60625 0 0 0-.105 53.2l-.005 3.031q-.034 21.234-.074 42.468l-.006 3.014q-.049 24.977-.105 49.954-.035 15.364-.056 30.727-.014 10.553-.038 21.105a8383 8383 0 0 0-.018 12.131c-.011 14.34-.056 28.67-.603 43.002l-.11 2.966c-1.117 25.528-8.74 48.832-22.123 70.538-3.792 5.945-8.037 11.317-12.725 16.575-2.434 2.744-4.713 5.561-6.984 8.441-8.45 10.35-18.13 19.265-28.625 27.5q-1.814 1.495-3.621 2.996-1.876 1.534-3.754 3.066l-1.767 1.485c-1.694 1.363-1.694 1.363-4.858 3.453-2.698.13-2.698.13-5 0l-.004-3.14c-.06-45.69-.122-91.38-.197-137.07l-.004-2.096-.112-67.24-.004-2.224q-.06-35.668-.104-71.337a122415 122415 0 0 0-.133-83.68l-.004-2.06q-.029-16.4-.043-32.798-.017-16.494-.054-32.989a8976 8976 0 0 1-.025-17.867 5454 5454 0 0 0-.03-16.367q-.007-2.955-.004-5.912c.242-19.123.242-19.123-5.884-36.978-5.22-8.369-12.115-12.892-20.757-17.5-10.967-5.25-22.888-5.275-34.825-5.777l-3.652-.207-3.298-.152C148 269 148 269 145.638 267.171L144 265c-.376-3.51-.348-6.055.875-9.375 2.747-3.968 7.706-2.77 12.032-2.765M538 589c4.53 1.84 7.543 5.426 10.75 9l1.596 1.752c3.928 4.349 7.633 8.854 11.302 13.424 3.693 4.434 7.645 8.62 11.579 12.84 4.315 4.63 8.436 9.418 12.546 14.23l3.102 3.629 1.575 1.845a457 457 0 0 0 9.237 10.467 219 219 0 0 1 8.625 10.125c3.888 4.81 8.009 9.33 12.235 13.838 4.02 4.315 7.74 8.826 11.433 13.424 2.304 2.768 4.771 5.268 7.356 7.77 2.35 2.339 4.484 4.845 6.648 7.355 2.46 2.809 4.986 5.556 7.516 8.301a542 542 0 0 1 10.758 12.008A594 594 0 0 0 670.5 736a778 778 0 0 1 14.25 16.223l3.063 3.59 1.547 1.816c4.168 4.873 8.48 9.592 12.874 14.262L704 774v2h2c1.351 1.512 2.63 3.088 3.875 4.688 3.595 4.499 7.32 8.79 11.25 13 3.192 3.42 6.376 6.835 9.438 10.375 2.877 3.326 5.835 6.575 8.812 9.812 6.162 6.701 12.299 13.422 18.25 20.313 2.725 3.133 5.597 6.058 8.56 8.965 1.628 1.657 3.12 3.354 4.612 5.132 5.357 6.157 11.176 11.874 16.944 17.642 1.996 1.997 3.983 4.003 5.97 6.009C800.835 879.09 808.037 885.778 816 892q2.38 1.964 4.75 3.938c17.602 13.926 38.104 25.498 60.55 28.921 2.682.39 5.36.756 8.051 1.066 3.42.422 6.115.803 9.204 2.38C900 930 900 930 900.46 932.156l-.086 2.344-.04 2.344C900 939 900 939 898 942c-2.767 1.012-5.374 1.127-8.301 1.134l-2.586.013-2.812-.002-2.984.01q-4.894.013-9.79.013l-6.841.01q-7.189.009-14.378.007c-6.091 0-12.183.014-18.275.031q-7.08.015-14.16.013-3.362 0-6.726.013c-17.1.054-34.224-.264-50.897-4.492l-2.643-.655c-26.832-6.913-49.427-23.177-69.041-42.296-5.484-5.434-10.567-11.025-15.359-17.088-2.455-3.015-5.058-5.869-7.707-8.711-4.21-4.53-8.176-9.203-12.055-14.02-2.915-3.553-5.923-7.017-8.945-10.48a563 563 0 0 1-13.191-15.691c-2.722-3.312-5.51-6.562-8.309-9.809a777 777 0 0 1-15-18l-3.129-3.852-1.67-2.055L601.5 794l-3.367-4.145-1.624-1.998-3.954-4.869a821 821 0 0 0-11.93-14.3c-3.87-4.537-7.596-9.163-11.25-13.875-3.895-5.022-7.971-9.787-12.273-14.47-2.768-3.086-5.31-6.326-7.875-9.581-2.655-3.293-5.402-6.498-8.164-9.7a671 671 0 0 1-12.786-15.285 685 685 0 0 0-7.777-9.277 737 737 0 0 1-10-12c-5.082-6.24-10.289-12.369-15.5-18.5-19.233-22.629-19.233-22.629-25-31 2.014-4.974 6.01-7.765 10.086-11.031 13.654-10.546 28.537-19.44 43.645-27.72a384 384 0 0 0 6.078-3.433l3.191-1.754 2.625-1.464zM781.375 1000.813l3.773-.038 3.625-.005 3.326-.013c2.897.243 4.486.674 6.901 2.243a95 95 0 0 1 4.313 5.188c2.604 3.275 5.165 6.417 8.187 9.312 2.805 2.709 5.246 5.583 7.688 8.625 3.45 4.29 7.05 8.362 10.812 12.375 3.63 3.875 7.117 7.789 10.438 11.938 4.581 5.708 9.55 11.005 14.554 16.34a289 289 0 0 1 8.194 9.14c2.146 2.463 4.33 4.89 6.517 7.316l2.443 2.71L874 1088q.106-12.675.155-25.35.022-5.886.071-11.773c.033-3.793.05-7.586.059-11.38q.008-2.16.032-4.322c.254-11.452.254-11.452-3.317-22.175-1.8-2.07-2.884-2.951-5.445-4.027a1298 1298 0 0 0-5.375-1.813L858 1006c-.867-2.066-.867-2.066-1-4l1-1a67 67 0 0 1 4.428-.114h2.851l3.1.016 3.157.005c3.342.005 6.684.018 10.027.03q3.39.008 6.779.014 8.329.017 16.658.049v5c-.831.315-1.663.63-2.52.953l-3.293 1.297-3.269 1.266c-2.95 1.286-2.95 1.286-4.742 3.468-1.977 3.39-2.315 6.168-2.381 10.012l-.06 3.09-.051 3.351-.063 3.483q-.066 3.668-.124 7.334c-.058 3.676-.124 7.352-.19 11.027-.195 11.093-.333 22.18-.295 33.273.014 7.386-.224 14.753-.512 22.133l-.145 3.932q-.172 4.69-.355 9.381c-3.787 1.982-6.504 2.498-10.773 2.36C874 1122 874 1122 871 1120.187c-3.432-3.349-6.327-7.22-9.312-10.961-3.053-3.741-6.368-7.224-9.688-10.727a247 247 0 0 1-13.652-15.68c-3.926-4.715-8.16-9.142-12.356-13.617-3.426-3.655-6.726-7.404-9.992-11.203l-4.771-5.506-3.348-3.865a2342 2342 0 0 0-8.586-9.865l-1.88-2.147L796 1035q-.07 12.505-.104 25.01-.014 5.808-.047 11.615-.032 5.613-.039 11.224-.005 2.134-.021 4.267c-.093 10.612-.093 10.612 2.211 20.884 1.796 2.587 3.46 3.731 6.262 5.125A172 172 0 0 0 811 1116l-1 5q-8.703.037-17.407.055-2.963.008-5.925.02-4.253.017-8.504.023l-2.686.015c-6.25 0-6.25 0-8.478-1.113v-4l2.047-.594 2.703-.906 2.672-.844c2.661-1.71 3.292-2.506 4.708-5.215 2.12-4.462 2.433-8.265 2.372-13.149l.016-2.516c.012-2.72-.004-5.439-.022-8.159q0-2.853.005-5.707 0-5.964-.034-11.927c-.029-5.089-.026-10.177-.013-15.266.007-3.924-.001-7.848-.014-11.772a1253 1253 0 0 1 0-5.628c.002-2.623-.014-5.245-.036-7.868l.014-2.334c-.05-3.567-.458-6.214-1.799-9.538-1.463-2.682-1.463-2.682-3.932-4.264a173 173 0 0 0-5.937-2.75L767 1006c-.875-2.187-.875-2.187-1-4 4.435-2.217 10.505-1.185 15.375-1.187M721.254 1003.504c9.092 5.005 16.85 11.247 22.621 19.933 5.73 9.682 9.029 19.607 9.426 30.895.158 14.788-1.18 26.952-8.223 40.238-4.924 8.424-11.274 15.675-19.512 20.973A105.5 105.5 0 0 1 712 1122l-2.355.938c-10.844 3.777-23.055 3.773-34.266 1.847-10.038-2.332-18.336-6.383-26.379-12.785l-3-2.348c-7.162-6.029-11.829-14.413-15-23.09-4.382-13.131-4.43-28.403-2-42 2.806-10.946 8.603-21.18 16.465-29.285 9.343-8.392 19.418-14.023 31.68-17.054 14.665-2.767 30.548-.987 44.109 5.28M674 1012c-6.21 4.73-11.726 9.826-15 17-4.109 10.705-5.182 19.77-5.187 31.188l-.038 3.869c-.018 12.068 1.731 22.116 7.225 32.943 3.778 6.293 8.114 10.191 14.473 13.809 8.087 3.812 15.788 3.88 24.527 3.191 5.143-1.215 9.017-3.814 13.125-7.062 5.596-5.284 9.399-11.162 12.2-18.325 4.36-14.646 4.13-31.08 1.487-46.05-1.452-6.028-3.551-11.294-6.812-16.563l-1.27-2.14c-3.964-5.987-9.418-9.58-15.73-12.86-8.35-3.406-21.126-4.12-29 1M18 1001h49l1 5-2.082.734-2.73 1.016-2.708.984c-2.522 1.126-2.522 1.126-4.242 3.032-2.814 5.079-2.433 11.24-2.554 16.914l-.063 2.463q-.096 3.865-.184 7.732l-.13 5.266q-.16 6.429-.307 12.859a167 167 0 0 0 15.25-14.625l1.938-2.091q1.958-2.114 3.914-4.233 2.701-2.914 5.43-5.805l3.218-3.434 1.481-1.562c2.697-2.897 4.964-5.72 6.769-9.25.72-3.695.72-3.695 1-7l-9-3v-5h46l1 4c-3.132 2.088-6.154 3.412-9.687 4.625-12.15 4.837-21.86 17.803-30.938 26.938l-4.2 4.212A9986 9986 0 0 0 75 1051c4.425 9.217 12.527 16.769 19.438 24.223 2.66 2.884 5.249 5.82 7.82 8.785 2.811 3.215 5.684 6.374 8.547 9.543a465 465 0 0 1 5.82 6.637q1.683 1.91 3.375 3.812l1.637 1.875c4.47 4.835 9.358 7.503 15.363 10.125v4l-1 1c-27.231 2.846-27.231 2.846-36.508-1.055-3.56-2.66-5.543-6.135-7.492-10.068-1.731-3.25-4.113-5.975-6.437-8.814q-1.37-1.755-2.735-3.512c-3.387-4.299-6.959-8.433-10.547-12.564a242 242 0 0 1-10.27-12.706c-2.729-3.095-5.83-5.662-9.011-8.281q.143 6.934.317 13.867.057 2.35.105 4.701c.048 13.88.048 13.88 2.578 27.432 2.647 2.766 2.647 2.766 6 4l2.875 1.25L67 1116l-1 5q-9.744.037-19.489.055-3.315.008-6.631.02-4.762.017-9.525.023l-3.002.015h-2.79l-2.456.007C20 1121 20 1121 17 1120v-4l2.117-.848 2.758-1.215 2.742-1.16L27 1111c1.938-5.266 2.293-10.005 2.275-15.578l.015-2.511c.014-2.72.013-5.44.01-8.161l.014-5.704q.01-5.967.002-11.933c-.006-5.087.01-10.174.034-15.262.015-3.924.016-7.848.013-11.772q0-2.812.015-5.626a863 863 0 0 0-.006-7.875l.023-2.327c-.05-5.122-1-8.7-3.395-13.251-2.182-1.847-2.182-1.847-4.687-2.937l-2.45-1.215L17 1006zM1011 1000c2.385 22.682 2.385 22.682 2 33l-4 1-2.75-4.125-1.668-2.488a238 238 0 0 1-3.644-5.7c-2.12-2.938-3.878-4.74-6.938-6.687-7.432-2.507-14.724-2.227-22.5-2.125L958 1013l-1 42 11.063-.312 3.445-.076c5.82-.21 10.467-.537 15.492-3.612 1.591-2.353 1.591-2.353 2.313-5.062 1.56-4.812 1.56-4.812 3.687-6.938 2.063.313 2.063.313 4 1l1 1c.089 2.884.115 5.745.098 8.629l-.005 2.619c-.005 2.771-.018 5.543-.03 8.314q-.008 2.813-.014 5.624-.017 6.907-.049 13.814l-5 1-1.137-2.52-1.55-3.293-1.512-3.269c-1.584-2.974-1.584-2.974-4.041-4.568-3.12-1.526-5.258-1.773-8.717-1.862l-3.37-.107-3.486-.069-3.544-.103q-4.321-.123-8.643-.209.141 7.98.317 15.96.058 2.714.105 5.427c.046 2.605.104 5.208.164 7.812l.035 2.44c.109 4.164.296 7.64 2.379 11.361 2.763 2.177 2.763 2.177 5.584 2.275 3.348.028 6.694.047 10.041.037l3.488.05c8.308.004 14.738-1.166 22.074-5.05 6.297-5.177 10.079-12.174 13.813-19.312h4c.892 2.942 1.032 5.097.547 8.125l-.374 2.375-.423 2.5-.42 2.558c-1.105 6.55-2.328 13.099-4.33 19.442l-1 1c-2.923.065-5.82.065-8.742.022l-2.78-.03q-4.569-.051-9.138-.113l-6.318-.072q-8.332-.096-16.665-.202-8.496-.104-16.992-.2-16.683-.195-33.365-.405l-2-4c2.843-1.81 5.459-3.174 8.625-4.375 3.403-1.328 3.403-1.328 5.043-3.783 1.626-3.47 1.84-6.111 2.012-9.944l.1-2.198c.414-10.471.369-20.96.35-31.437-.005-3.624 0-7.248.007-10.872.004-10.461-.043-20.916-.52-31.368l-.092-2.322c-.155-2.862-.418-5.402-1.387-8.11-1.158-1.871-1.158-1.871-3.958-3.075l-3.305-1.266-3.32-1.297L918 1006l1-5a131877 131877 0 0 1 43.619-.573 39621 39621 0 0 1 18.455-.242c9.977-.133 19.949-.217 29.926-.185M241 1000c1.606 4.276 2.284 7.933 2.414 12.492l.117 3.633.094 3.75.117 3.82q.141 4.653.258 9.305l-5 1q-1.974-3.404-3.937-6.812l-1.131-1.948c-1.567-2.723-2.936-5.251-3.932-8.24-6.078-3.04-12.505-4.24-19.246-4.414l-3.639-.108-4.553-.103L188 1012v43l11.063-.312 3.445-.076c5.82-.21 10.482-.51 15.492-3.612 1.737-2.62 1.737-2.62 2.688-5.625 1.074-2.977 1.074-2.977 2.312-5.375 2.02-.96 2.02-.96 4-1l2 2c.175 2.941.231 5.787.195 8.727l-.008 2.614c-.011 2.762-.037 5.523-.062 8.284q-.016 2.805-.027 5.61-.035 6.882-.098 13.765l-5 1-1.355-2.773q-.915-1.802-1.833-3.602l-.884-1.828c-1.005-2.024-1.005-2.024-2.928-4.797-3.604-1.85-6.72-2.285-10.738-2.414l-3.233-.117-3.341-.094-3.4-.117q-4.144-.141-8.288-.258.14 8.676.317 17.352.059 2.952.105 5.905c.045 2.827.103 5.654.164 8.481l.035 2.671.06 2.487.04 2.187c.186 2.243.186 2.243 2.279 4.917 5.321 1.774 10.993 1.27 16.563 1.313l3.751.087c7.845.054 13.65-.97 20.686-4.4l3-1a88 88 0 0 0 2-4l1.75-2.125c3.166-4.045 5.668-8.442 8.25-12.875l4 1c.243 6.78-.678 13.084-1.875 19.75l-.527 3.113c-.8 4.545-1.51 7.96-3.598 12.137l-95-1-1-5 2.3-.7 3.012-.987 2.989-.95c2.753-1.19 2.753-1.19 4.492-3.32 3.703-9.335 2.355-20.837 2.34-30.77l.003-4.798q.002-5-.006-10-.006-6.375.004-12.752.005-4.944 0-9.888 0-2.35.002-4.7c.088-11.612.088-11.612-1.136-23.135-1.937-3.02-1.937-3.02-5-5a59 59 0 0 0-6.328-2.129L150 1006c-.797-2.027-.797-2.027-1-4l1-1c2.436-.125 4.845-.186 7.283-.205l2.311-.03q3.808-.047 7.617-.081l5.297-.063q7.002-.083 14.004-.153 5.673-.06 11.344-.129c32.33-.379 32.33-.379 43.144-.339M470 1002l2.747.498L475 1003l1 1c.102 2.947.14 5.865.125 8.813l-.008 2.6c-.13 17.614-.13 17.614-2.117 21.587l-5-1-.594-2.527c-1.92-7.223-4.105-12.38-9.386-17.73-3.216-2.775-6.22-4.318-10.332-5.29-6.277-1.058-13.036-1.315-19.125.735-3.676 1.87-5.947 3.641-8.563 6.812-1.017 3.05-1.336 5.484-1.5 8.688l-.219 3.011c.733 3.364 1.45 4.7 3.535 7.352 4.469 4.732 9.692 6.978 15.622 9.449q3.218 1.411 6.433 2.828l3.164 1.373c21.16 9.268 21.16 9.268 26.965 16.299 3.116 4.881 4.82 9.505 5.238 15.285.14 7.078.02 13.53-2.789 20.152-3.732 6.6-8.856 11.816-15.199 15.938A110 110 0 0 1 457 1121l-2.645 1.25c-11.829 4.56-25.868 3.982-38.266 2.372-7.205-1.199-14.37-2.686-21.089-5.622-1.288-11.984-1.1-23.964-1-36l5-1 .664 1.617c3.862 9.074 8.088 17.282 15.777 23.688 5.097 3.377 10.714 5.16 16.75 6 5.938.216 12.511-.724 17.895-3.305 3.185-2.043 4.837-3.875 6.851-7.125 1.691-4.83 1.711-9.843 1.063-14.875-1.197-3.463-1.197-3.463-4-6-6.552-4.51-13.479-7.605-20.875-10.437-10.144-4.017-19.832-8.287-28.125-15.563-4.179-5.546-6.913-11.155-8-18-.71-6.979.434-13.48 3-20 1.701-2.99 3.661-5.484 6-8l1.523-1.648c4.94-4.747 11.037-7.222 17.477-9.352 15.109-3.174 30.136.054 45 3M506.34 999.88l2.763-.004 3.038.01h3.193c3.496 0 6.99.009 10.486.016l7.256.005q9.562.006 19.126.024 9.753.014 19.505.02 19.147.016 38.293.049c1.436 4.79 2.241 8.799 2.195 13.809l-.02 3.76-.05 3.869-.027 3.95q-.036 4.807-.098 9.612l-4 1-.664-1.617c-2.579-6.059-5.276-12.16-9.336-17.383-3.845-2.803-8.38-3.346-13-4-3.122-.248-6.247-.41-9.375-.562l-2.52-.131q-3.053-.158-6.105-.307.09 18.255.236 36.51c.044 5.65.084 11.3.11 16.952q.04 8.18.117 16.359.025 3.12.035 6.242c.01 2.914.037 5.827.07 8.74l-.005 2.61c.059 3.738.239 6.165 1.847 9.595 1.446 2.06 1.446 2.06 3.457 3.066l2.008.614 2.121.699L579 1114c2.937 1 2.937 1 5 2l1 3-1 2q-11.694.037-23.389.055-3.981.008-7.962.02-5.711.017-11.422.023l-3.615.015h-3.336l-2.947.007C529 1121 529 1121 527 1120c.195-1.875.195-1.875 1-4 2.18-1.125 2.18-1.125 4.875-2 2.963-.968 4.738-1.588 6.883-3.875 2.75-4.705 2.411-9.71 2.447-15.024l.03-2.721q.047-4.447.081-8.896l.063-6.17q.082-8.118.153-16.236.077-8.286.161-16.57.162-16.254.307-32.508-4.09.225-8.18.457l-2.327.127c-9.045.413-9.045.413-17.442 3.494-3.02 2.203-4.722 4.211-6.301 7.621a125 125 0 0 0-1.926 5.715c-.75 2.355-1.656 4.414-2.824 6.586h-4c-1.326-2.651-1.13-4.67-1.133-7.637l-.004-3.44.012-3.61-.012-3.553c.014-11.79.014-11.79 1.137-16.76 2.348-1.174 3.724-1.123 6.34-1.12M260 1001h54l1 4c-3.578 2.21-7.222 4.155-11 6-.461 5.045-.058 8.445 2.055 13.074q1.387 2.82 2.82 5.613l3.02 6.083 1.56 3.111a437 437 0 0 1 4.432 9.256l1.365 2.925q1.292 2.772 2.574 5.55l1.178 2.505 1.026 2.207.97 1.676 2 1 .645-2.309c1.896-5.163 4.469-9.899 7.043-14.754l1.628-3.107c2.282-4.345 4.575-8.678 6.997-12.947 3.692-6.384 3.692-6.384 5.812-13.383.042-3.44.042-3.44-1.062-6.312-2.153-2.283-3.302-2.803-6.188-3.813l-2.133-.602L338 1006l-1-3 2-2c1.949-.24 1.949-.24 4.358-.227h2.73l2.951.032 3.018.008c3.19.011 6.379.037 9.568.062q3.238.016 6.477.027 7.95.034 15.898.098l1 3c-1.538 1.724-2.732 2.884-4.867 3.809l-4 1.25c-3.752 1.656-6.419 3.972-8.844 7.261l-1.664 2.805-.98 1.639A696 696 0 0 0 361 1027l-1.636 2.812a3928 3928 0 0 0-11.457 19.864q-2.75 4.789-5.509 9.57l-3.273 5.691-1.532 2.653-1.398 2.437-1.218 2.117c-2.928 5.56-2.161 11.61-2.164 17.731l-.038 3.59-.005 3.465-.013 3.163c.254 3.036.923 5.175 2.243 7.907 2.856 3.625 6.126 5.143 10.293 6.875L347 1116c.8 2.063.8 2.063 1 4l-1 1a87 87 0 0 1-5.039.13l-3.256.009-3.545-.006-3.613.003q-3.792 0-7.584-.006c-3.88-.005-7.76 0-11.64.007q-3.675 0-7.35-.004l-3.539.006-3.266-.01-2.884-.002C293 1121 293 1121 291 1120c.234-1.906.234-1.906 1-4 1.89-.906 1.89-.906 4.25-1.5 2.923-.874 5.036-1.67 7.688-3.25 2.114-2.307 2.871-4.048 3.658-7.042 1.713-9.37 1.585-20.356-.295-29.673-1.2-3.036-2.656-5.712-4.301-8.535a986 986 0 0 1-2.547-4.723 995 995 0 0 0-6.117-11.172c-4.11-7.45-7.972-15.028-11.795-22.63-4.433-8.806-4.433-8.806-10.541-16.475-3.34-1.963-3.34-1.963-6.875-3l-3.492-1.187L259 1006zM323 902c2.546 1.846 4.876 3.828 7.206 5.937 5.664 5.051 11.809 8.067 18.794 11.063l2.781 1.21c12.47 4.767 26.713 5.528 39.935 6.47 2.284.32 2.284.32 4.971 1.82 1.689 3.216 1.753 5.789 1.747 9.379C398 940 398 940 396.66 941.715 395 943 395 943 392 944c-3.052.1-6.08.14-9.133.133l-2.956.004c-3.345.002-6.69-.005-10.036-.012l-3.533-.004c-26.118-.03-52.236-.276-78.354-.527q-4.944-.047-9.889-.09-7.898-.072-15.797-.157-2.94-.03-5.88-.056c-19.309-.173-19.309-.173-28.422-1.291l1-3a83 83 0 0 1 6.25-4.5l2.003-1.314C255.992 921.168 299.49 895.158 323 902M434 1163c4.322 2.365 7.242 4.914 10 9 1.55 3.747 1.411 8.008 1 12-1.275 3.96-2.637 6.568-5.312 9.75-2.76 2.31-5.405 3.8-8.688 5.25l2.375 3c3.722 4.93 6.91 10.174 10.109 15.451l1.246 2.037 1.107 1.83c1.8 2.604 3.564 4.357 6.35 5.87L454 1228v3c-2.73.108-5.456.187-8.187.25l-2.33.102c-3.659.062-5.945-.065-9.217-1.809-3.123-3.505-5.172-7.33-7.329-11.48-3.727-7.57-3.727-7.57-8.937-14.063-2.676-.98-5.177-1.483-8-2 .08 3.605.194 7.208.313 10.813l.068 3.103.107 2.979.08 2.745c.255 2.405.255 2.405 1.776 4.117 1.75 1.45 1.75 1.45 4.656 2.243l-1 3h-28v-3l2.375-.562L393 1226c2.095-5.477 2.28-10.52 2.23-16.336v-2.663q-.006-2.775-.024-5.552c-.018-2.808-.02-5.617-.02-8.426l-.018-5.421-.003-2.51c.034-8.113.034-8.113-1.165-16.092-2.302-2.1-2.302-2.1-5-3l-2-1 1-3c36.249-2.25 36.249-2.25 46 1m-24 4v29c9.996.796 9.996.796 14.5-1.687 2.56-2.37 3.94-4.21 5.5-7.313.605-4.047.494-7.942 0-12-1.456-3.648-1.456-3.648-4-6-5.805-2.68-5.805-2.68-16-2M703 1164c2.976 1.822 4.56 3.467 6.75 6.125 1.848 4.252 2.349 8.251 2.25 12.875-.502 3.026-1.365 5.403-3 8-2.107 2.382-4.257 4.382-7 6-2.727.66-2.727.66-5 1l1.688 2.387 2.312 3.3 1.234 1.76c2.833 4.086 5.388 8.258 7.891 12.553 3.068 5.094 5.704 8.091 10.875 11l-1 2c-2.543.136-5.08.234-7.625.313l-2.16.126c-2.165.05-4.088-.031-6.215-.439-4.083-2.508-6.125-4.92-8.45-9.066q-1.139-2.238-2.237-4.496-1.126-2.255-2.262-4.504l-1.056-2.099c-1.142-2.106-2.535-3.94-3.995-5.835v-2l-9-1c.08 3.605.194 7.208.313 10.813l.068 3.103.107 2.979.08 2.745c.243 2.418.243 2.418 1.859 4.074L681 1227l3 3-1 1c-2.073.088-4.148.107-6.223.098l-3.818-.01-4.021-.025q-2.018-.008-4.034-.014A3769 3769 0 0 1 655 1231v-3l6-3c.813-10.293 1.108-20.55 1.125-30.875l.014-3.417c.178-10.424.178-10.424-1.139-20.708-2.01-2.475-4.104-3.702-7-5l1-3c37.035-2.125 37.035-2.125 48 2m-26 3v29c9.98.772 9.98.772 14.5-1.625 2.913-2.767 4.225-4.55 5.5-8.375.56-4.77.358-8.84-1.062-13.437-1.842-2.76-1.842-2.76-5-4.438-4.858-1.583-4.858-1.583-13.938-1.125M779.36 1162.578c5.63 3.032 10.356 7.234 14.081 12.434 3.36 6.112 4.309 12.935 4.871 19.8-.25 6.915-1.594 13.875-4.789 20.036-3.65 5.524-7.758 9.856-13.523 13.152-6.99 3.324-13.267 5.32-21.062 4.875-6.984-.64-12.846-2.384-18.938-5.875-4.284-3.074-7.13-6.324-9.562-11.008-3.493-8.077-5.086-15.207-4.438-23.992 1.103-7.681 3.389-13.64 8.117-19.812 4.57-5.31 9.148-8.632 15.574-11.426 9.584-3.163 20.413-1.919 29.668 1.816m-29.344 7.442c-3.473 3.411-5.4 7.43-7.016 11.98-2.13 8.12-1.86 17.628-.246 25.828 1.637 5.623 3.29 9.773 7.246 14.172 3.245 2.401 5.462 3.755 9.43 4.387 3.415.15 6.386.034 9.625-1.117 3.913-2.058 6.516-4.627 8.945-8.27 4.194-7.456 4.288-14.339 4.323-22.686-.106-7.918-1.982-14.037-5.772-20.962-2.031-3.08-4.389-4.507-7.551-6.352-7.239-2.413-12.83-1.51-18.984 3.02M71 1162a484 484 0 0 1 9.125-.312l2.594-.127c6.227-.12 6.227-.12 9.09 1.398 3.214 2.593 5.831 5.809 8.379 9.041a517 517 0 0 0 10.312 12.5c2.711 3.181 5.41 6.367 8.023 9.629l2.352 2.934 2.055 2.597c2.165 2.447 4.466 4.376 7.07 6.34 1.08-18.452 1.08-18.452-1.844-36.3-1.193-2.026-1.193-2.026-4.281-3.45L121 1165v-3h27l1 3-8 3c-2.743 12.783-2.45 25.804-2.625 38.813q-.057 3.525-.117 7.048A5466 5466 0 0 0 138 1231c-2.38.58-2.38.58-5 1-1.922-1.266-1.922-1.266-3.75-3.25l-2.098-2.262c-2.943-3.403-5.794-6.872-8.613-10.379-2.869-3.545-5.857-6.983-8.852-10.421l-4.997-5.743a2501 2501 0 0 1-8.377-9.695l-1.531-1.77c-2.085-2.428-4.004-4.813-5.782-7.48v45l6 2v3H72v-3a150 150 0 0 1 6-4c1.214-2.429 1.146-4.023 1.177-6.738l.039-2.984.022-3.235.025-3.319q.02-3.48.032-6.963c.017-3.549.061-7.097.105-10.646q.015-3.38.026-6.76l.053-3.217c-.008-2.77-.07-5.399-.479-8.138-1.64-3.137-1.64-3.137-4-5-2.618-1.333-2.618-1.333-5-2zM207 1162c5.83 2.563 10.178 6.645 14.234 11.5 3.815 5.4 5.5 10.615 6.106 17.184.222 8.822-.796 15.998-4.594 23.937-2.772 5.084-5.721 8.874-10.531 12.133-6.633 3.731-13.352 6.053-20.965 6.434-7.575-.143-13.764-2.015-20.254-5.918L169 1226l-2.687-1.687c-4.409-4.409-7.422-9.754-9.465-15.622-1.778-7.74-1.766-16.139-.196-23.925 2.139-6.499 5.554-11.896 10.348-16.766 5.233-4.521 10.669-6.969 17.383-8.531 7.978-1.43 14.984-.017 22.617 2.531m-28 8c-3.788 3.788-5.472 7.962-7 13-2.326 9.304-1.264 18.974 1.09 28.148 1.357 4.252 3.188 7.198 6.394 10.278 2.442 2.145 4.415 3.54 7.516 4.574 4.617.413 8.805.368 13.25-1 3.886-2.826 6.44-5.782 8.75-10 3.596-9.306 4.037-19.249 2.531-29.05-1.27-5.468-3.195-9.96-6.804-14.29-2.924-2.811-5.833-4.523-9.727-5.66-6.501-1.076-10.716.166-16 4M634 1162l1 1c.087 1.78.107 3.565.098 5.348l-.01 3.271-.025 3.444-.014 3.455A2762 2762 0 0 1 635 1187l-4 1-.883-2.379c-3.597-9.281-3.597-9.281-10.117-16.621-4.461-2.19-8.307-2.416-13.21-2.316-4.208.477-7.375 1.84-10.79 4.316-3.526 3.526-5.284 7.343-7 12-1.756 8.612-2.083 18.417.18 26.973 1.825 4.512 4.71 8.268 8.441 11.379 2.39 1.656 4.617 2.727 7.379 3.648 4.935.284 10.255.53 15-1 1.477-2.954 1.21-5.652 1.25-8.937l.078-3.778c-.045-3.212-.045-3.212-1.644-5.12-2.429-1.68-5.013-2.919-7.684-4.165v-3h31v3c-1.875 1.688-1.875 1.688-4 3h-2l-.184 3.797-.254 4.953-.119 2.5-.127 2.422-.11 2.222c-.21 2.15-.513 4.058-1.206 6.106-7.838 4.5-18.187 5.962-27.125 6.25-9.577-.618-17.76-2.939-25.875-8.25-4.821-4.293-7.33-9.205-9.437-15.25-2.09-7.772-2.55-15.017-.903-22.918 2.056-7.023 5.131-12.664 10.34-17.832 6.105-5.007 12.552-7.953 20.188-9.75 10.48-.687 21.47.98 31.812 2.75M809 1162h30v3l-2.937 1.625L833 1169c-1.323 7.412-1.183 14.926-1.187 22.438l-.038 3.525c-.013 8.2.2 16.06 3.975 23.475 2.139 2.612 2.139 2.612 4.75 4.437 5.196 1.67 10.093 1.66 15.5 1.125 4.063-1.33 5.76-2.754 8.75-5.812 2.27-3.216 3.252-5.408 4.25-9.188.185-2.797.28-5.49.266-8.285l.005-2.36a826 826 0 0 0-.01-4.914c-.011-2.5 0-4.998.012-7.498q0-2.396-.007-4.79l.012-2.252c-.037-4.047-.28-7.336-2.278-10.901-3.017-1.843-3.017-1.843-6-3v-3h26v3l-2.875 1.25c-3.06 1.43-3.06 1.43-4.301 3.351-1.194 3.478-1.122 6.897-1.133 10.532l-.076 4.883q-.042 3.82-.071 7.641c-.17 19.103-.17 19.103-3.544 26.343-2.657 4.316-5.992 7.79-10.348 10.414-6.478 3.007-12.513 4.035-19.652 3.586-7.183-.656-12.86-2.384-18.906-6.383-2.989-2.308-4.497-4.168-6.094-7.617-3.814-11.012-3.46-22.136-3.511-33.625-.016-2.47-.049-4.94-.083-7.41l.01-2.292c-.002-2.368-.002-2.368-.416-5.673-1.218-1.976-1.218-1.976-3-3-2.6-1.19-2.6-1.19-5-2zM600.438 1268.313l3.808.238c3.754.449 3.754.449 7.102 1.43 4.636 1.406 4.636 1.406 13.652 2.019v25l-4 1-1.312-3.625c-2.022-5.292-3.733-9.742-8-13.625-3.104-2.48-5.74-3.944-9.688-4.75-4.62-.367-7.29-.24-11.687 1.25-4.068 2.149-7.083 3.929-9.696 7.797-3.681 6.27-4.633 11.36-4.867 18.578.09 7.29 1.084 14.246 4.504 20.766 2.314 3.404 4.832 5.99 8.371 8.109 4.397 1.883 8.67 2.064 13.41 1.879 4.535-.58 8.18-1.8 11.965-4.379 3.188-3.017 5.573-6.36 8-10l4 1c-.332 3.483-.95 5.906-2.625 9-3.65 4.61-7.587 8.383-13 10.813-7.798 2.743-15.976 3.09-24.129 1.726-6.972-1.855-12.677-5.296-18-10.133-4.918-5.226-7.275-11.523-8.996-18.406-.731-8.777-.257-16.623 2.75-25 2.683-5.31 6.222-9.93 10.879-13.652 8.656-5.5 17.398-7.732 27.558-7.035M925.938 1160.75l2.576-.064c7.314-.04 13.672 1.656 20.361 4.564 2.978 2.452 4.689 5.227 6.125 8.75 1.217 4.95 1.14 8.275-.187 13.188-1.372 3.985-2.66 6.908-5.813 9.812-4.142 2.682-8.145 4.979-13 6-2.76.07-5.492.094-8.25.063l-2.258-.014q-2.745-.02-5.492-.049c.11 3.272.24 6.542.375 9.813l.094 2.814.117 2.705.095 2.491c.203 2.467.203 2.467 2.319 5.177a88 88 0 0 0 5 3l-1 2h-28v-3a99 99 0 0 1 5-3c1.229-2.458 1.133-4.08 1.145-6.83l.02-3.044.003-3.302.01-3.386q.007-3.552.007-7.104c.002-3.621.02-7.242.04-10.863q.005-3.45.005-6.897l.022-3.283-.01-3.073.005-2.694c-.28-2.86-.944-4.966-2.247-7.524-2.524-1.36-2.524-1.36-5-2v-3c9.306-.683 18.606-1.136 27.938-1.25M921 1167l-1 1a143 143 0 0 0-.098 6.441l.01 3.955.025 4.167q.008 2.089.014 4.177.018 5.13.049 10.26c1.895.082 3.791.14 5.688.188l3.199.105c3.155-.11 3.155-.11 5.863-1.652 3.176-2.316 4.55-4.05 6.25-7.641.555-4.086.55-7.914 0-12-1.754-3.845-3.221-5.444-6.625-7.875-4.48-1.494-8.687-1.584-13.375-1.125M342 1161c3.072 4.146 4.694 9.038 6.512 13.824l1.006 2.607c1.409 3.654 2.808 7.311 4.207 10.969a1335 1335 0 0 0 6.235 15.986q1.044 2.624 2.072 5.255c.99 2.513 2.015 5.009 3.05 7.504l.881 2.276c.877 2.053 1.697 3.792 3.037 5.579 2.328 1.485 4.33 2.172 7 3v3h-29v-3l1.563-1.187L350 1225c-.24-6.718-2.199-12.395-4-19h-23c-2.518 7.884-2.518 7.884-3.687 15.625l-.2 2.54L319 1226l7 2v3h-26l2-4 1.938-.89c2.275-1.003 2.275-1.003 3.562-3.532l1.5-3.328.863-1.91c6.246-14.109 11.761-28.599 17.325-42.988l1.812-4.602c.38-1.017.38-1.017.77-2.054.73-1.837.73-1.837 2.23-4.696 3.249-2.27 6.08-2.584 10-2m-8 15a572 572 0 0 0-6.25 15.938l-1.016 2.714c-.883 2.415-.883 2.415-.734 5.348h17c-.704-3.52-1.397-6.352-2.629-9.645l-.947-2.548-.986-2.62-.999-2.677q-1.215-3.256-2.439-6.51zM458 1162h31v3l-7 2c1.946 6.706 4.705 12.526 8.188 18.563l1.404 2.478q1.693 2.985 3.408 5.959a573 573 0 0 0 7-11l1.871-3.004 1.692-2.871 1.566-2.617L508 1172c-.591-2.748-.591-2.748-2-5-2.017-1.344-2.017-1.344-4-2v-3h24l1 3-2.75 1.688c-5.004 3.56-7.85 8.106-11 13.312l-2.086 3.434-1.073 1.773a708 708 0 0 1-3.318 5.39l-1.09 1.76-3.019 4.866L501 1200c-.4.619-.8 1.237-1.21 1.875-1.224 3.295-1.078 6.597-1.04 10.063l-.023 2.13c.015 4.069.296 7.344 2.273 10.932 3.013 2.315 3.013 2.315 6 4l-1 2h-27v-3l1.938-.875L483 1226c2.449-4.897 2.234-11.179 2.078-16.562-1.31-12.513-10.261-24.194-17.078-34.438l-1.519-2.286c-2.781-4.046-5.289-6.277-9.481-8.714zM399 1272h31v3l-2.937 1.375L424 1278c-1.231 2.462-1.14 4.107-1.161 6.861l-.03 3.064-.012 3.321-.017 3.4q-.014 3.565-.02 7.13c-.01 3.643-.041 7.286-.072 10.93q-.01 3.457-.016 6.915l-.038 3.315.01 3.074-.011 2.707c.199 2.335.199 2.335 1.668 4.07 1.837 1.52 1.837 1.52 5.246 1.611q2.1.012 4.203-.023l2.094.035c5.077-.028 8.643-1.069 13.156-3.41 3.19-3.279 5.078-6.869 7-11l4 1q-.465 3.876-.937 7.75l-.264 2.21c-.889 7.24-.889 7.24-1.799 10.04-2.631 1.316-4.514 1.08-7.46 1.022l-3.457-.061-3.747-.082-3.825-.072a5105 5105 0 0 1-10.071-.202q-5.137-.104-10.276-.2-10.082-.195-20.164-.405v-3l2.875-1.25c3.115-1.426 3.115-1.426 4.304-3.567.916-2.435 1.075-4.26 1.08-6.856l.019-2.792-.012-2.996.005-3.1q.002-3.247-.01-6.492c-.01-3.303 0-6.605.012-9.908q0-3.156-.007-6.312l.012-2.984c-.033-4.91-.103-9.228-2.278-13.743-3-1.918-3-1.918-6-3zM235 1162h64v21h-4l-.734-1.828-1.016-2.422-.984-2.39c-1.494-2.786-2.803-4.357-5.266-6.36-3.484-.911-3.484-.911-7.25-1.25l-3.828-.453L273 1168q.126 10.9.288 21.8.076 5.063.134 10.123c.045 3.878.103 7.755.164 11.632l.035 3.68.06 3.397.04 3.002L274 1224c2.222 2.222 4.085 2.926 7 4v3h-29v-3l5-1c2.02-6.679 2.263-12.768 2.195-19.719l-.008-3.328c-.011-3.485-.036-6.969-.062-10.453q-.016-3.558-.027-7.117-.034-8.692-.098-17.383a723 723 0 0 0-4.762-.059l-2.678-.033c-2.8.013-2.8.013-6.373 1.03-3.298 2.134-4.246 3.412-6.125 6.75A143 143 0 0 0 237 1181h-2c-1.408-6.882-.633-11.406 0-19M480 1272h30l1 3-2.937 1.375L505 1278c-1.234 2.469-1.127 4.1-1.13 6.861l-.009 3.064.006 3.321-.003 3.4q0 3.565.006 7.13c.005 3.643 0 7.286-.007 10.93q0 3.457.004 6.915l-.006 3.315.01 3.074.002 2.707c.036 2.448.036 2.448 1.127 5.283 6.957 1.095 13.244 1.225 20-1 2.654-1.154 2.654-1.154 5-3 1.866-2.681 1.866-2.681 3.313-5.687l1.55-3.012L536 1319l3 1c.374 7.474-.96 13.821-3 21-3.531.813-6.722 1.101-10.341 1.022l-3.154-.061-3.368-.082-3.476-.072q-5.487-.116-10.973-.245l-7.448-.158q-9.12-.194-18.24-.404l1-3a250 250 0 0 1 6-4c1.23-2.462 1.133-4.092 1.145-6.845l.02-3.055.003-3.31.01-3.394q.007-3.558.007-7.117c.002-3.632.02-7.264.04-10.896q.005-3.453.005-6.906l.022-3.3-.01-3.073.005-2.7c-.27-2.631-.794-4.2-2.247-6.404-3.033-1.767-3.033-1.767-6-3zM683.254 1297.753l3.747-.013 4.074.017 4.326-.006c3.917-.005 7.835.003 11.752.013 4.144.01 8.287.007 12.43.007q10.494.002 20.986.023 10.65.021 21.299.02c67.004-.004 67.004-.004 93.05.635l2.466.059c7.25.18 14.438.376 21.616 1.492l-1 3c-10.143.915-20.262 1.286-30.437 1.5l-2.702.06c-48.192 1.04-96.411 1.525-144.614 1.563q-3.082.003-6.163.01-5.615.007-11.229 0l-3.332.006-2.991-.01-2.599-.002L672 1306l-1-1a100 100 0 0 1 0-5c4.238-1.6 7.732-2.25 12.254-2.247M220.318 1297.866q5.578.002 11.157-.002 9.335-.003 18.67.006 10.695.006 21.389-.002a16113 16113 0 0 1 18.624-.003q5.507.003 11.012-.001c15.971-.013 31.885.16 47.83 1.136a88 88 0 0 1 1 5l-1 1c-2.029.099-4.062.126-6.093.127l-1.951.005c-2.175.004-4.35 0-6.525-.003l-4.662.006q-6.365.005-12.731 0c-4.465-.003-8.93 0-13.396 0q-11.3.003-22.6-.005-12.94-.007-25.88.002-11.17.007-22.34.003-6.641-.003-13.282.001c-17.223.012-34.433-.064-51.65-.582l-2.058-.059c-1.902-.056-3.804-.12-5.706-.183l-3.236-.109c-2.712-.19-5.242-.602-7.89-1.203v-3c8.022-.945 16.024-1.308 24.095-1.554l2.028-.064c15.063-.465 30.125-.53 45.195-.516M960 59h2l-1 14h-1l-.437-3.75c-.278-2.314-.601-4.381-1.25-6.625L958 61zM646 397l2 1-8 8-2-1zM581 352h2l-1 3a95 95 0 0 1-5 4l-2-1a376 376 0 0 1 2.875-3l1.617-1.687z"/><path fill="#737b82" d="m146 254 3 1-4 5zM439 639l1 4-3 1zM672 1011l4 1-5 2zM218 926l2 3-3 1z"/></svg>