<svg xmlns="http://www.w3.org/2000/svg" viewBox="0 0 600 400"><path d="M77.89,2.58 77.89,42.15 531.70,42.15 542.99,63.66 550.89,62.80 563.31,80.86 561.05,104.09 579.68,130.75 595.48,131.61 600.00,142.80 586.45,153.98 580.81,171.18 554.84,203.87 563.31,220.21 547.51,247.74 548.64,265.81 561.62,270.97 562.75,290.75 592.10,322.58 587.02,336.34 555.41,362.15 553.72,374.19 526.06,387.10 505.17,382.80 487.68,400.00 107.24,400.00 0.00,400.00 0.00,256.34 0.00,45.59 0.00,45.59 19.19,36.99 77.89,0.00 77.89,2.58Z" fill="#e5e7eb" stroke="#374151" stroke-width="1"/><path d="M548.64,260.64 549.20,263.23 561.62,270.97 562.75,290.75 572.34,294.19 574.60,302.80 597.18,332.90 571.22,348.39 572.34,338.07 567.26,334.63 518.72,290.75 534.53,271.82Z" fill="#f87171" stroke="#374151" stroke-width="1"/><path d="M518.15,289.88 518.72,290.75 567.26,334.63 566.14,335.48 557.66,349.25 545.81,341.51 541.30,347.53 547.50,354.41 540.17,360.44 532.27,347.53 531.70,345.81 521.54,342.36 520.98,337.21 514.21,332.90 507.43,319.15 498.96,318.28 496.71,318.28 514.21,286.45Z" fill="#fb923c" stroke="#374151" stroke-width="1"/></svg>
