<svg xmlns="http://www.w3.org/2000/svg" xmlns:xlink="http://www.w3.org/1999/xlink" width="1365" zoomAndPan="magnify" viewBox="0 0 1023.75 1535.999932" height="2048" preserveAspectRatio="xMidYMid meet" version="1.2"><g id="47d62a6434"><path style=" stroke:none;fill-rule:evenodd;fill:#000000;fill-opacity:1;" d="M 938.402344 64.367188 C 903.933594 133.191406 847.730469 213.40625 789.679688 276.621094 C 745.578125 324.640625 696.519531 370.378906 648.246094 408.472656 C 627.273438 425.027344 600.085938 452.453125 590.148438 467.09375 C 580.886719 480.734375 575.683594 490.921875 567.0625 512.300781 C 558.335938 533.9375 556.117188 541.992188 550.917969 570.878906 C 544.957031 604.019531 542.660156 613.785156 540.378906 615.679688 C 537.347656 618.195312 535.398438 614.21875 532.921875 600.46875 C 531.046875 590.046875 530.851562 583.746094 531.601562 557.515625 C 532.085938 540.605469 532.109375 525.808594 531.65625 524.628906 C 531.203125 523.453125 530.089844 522.488281 529.175781 522.488281 C 526.535156 522.488281 496.5 547.117188 477.464844 564.886719 C 438.988281 600.816406 413.515625 634.71875 395.902344 673.4375 C 387.773438 691.308594 377.554688 732.246094 368.855469 781.804688 C 366.382812 795.902344 363.757812 809.015625 363.027344 810.941406 C 361.769531 814.242188 361.5625 814.320312 359.359375 812.328125 C 358.078125 811.164062 356.078125 806.648438 354.921875 802.292969 C 349.675781 782.546875 347.925781 769.65625 347.050781 744.40625 C 346.445312 726.972656 345.640625 717.933594 344.554688 716.449219 C 343.066406 714.414062 342.605469 714.515625 338.257812 717.832031 C 326.527344 726.78125 297 773.226562 279.078125 810.921875 C 265.414062 839.664062 255.921875 868.238281 250.945312 895.605469 C 250.019531 900.6875 249.105469 927.34375 248.574219 964.671875 C 248.003906 1004.449219 247.242188 1025.925781 246.363281 1026.804688 C 244.890625 1028.28125 239.542969 1017.433594 229.773438 993.148438 C 223.347656 977.175781 219.285156 969.464844 217.28125 969.464844 C 213.238281 969.464844 207.589844 987.066406 200.664062 1021.253906 C 192.671875 1060.703125 189.597656 1087.65625 186.675781 1143.925781 C 184.660156 1182.742188 183.351562 1194.441406 179.550781 1207.71875 C 175.027344 1223.511719 166.328125 1231.097656 149.027344 1234.34375 C 137.277344 1236.542969 132.429688 1242.246094 137.285156 1248.152344 C 141.960938 1253.84375 201.964844 1277.636719 211.632812 1277.636719 C 218.78125 1277.636719 219.867188 1275.441406 217.894531 1264.980469 C 216.894531 1259.675781 216.496094 1251.464844 216.882812 1244.082031 C 217.636719 1229.660156 221.164062 1221.066406 229.941406 1212.289062 C 238.929688 1203.300781 248.886719 1198.800781 303.824219 1178.894531 C 346.488281 1163.433594 392.320312 1139.699219 392.320312 1133.058594 C 392.320312 1132.03125 392.132812 1131.191406 391.902344 1131.191406 C 389.050781 1131.191406 362.695312 1126.960938 356.277344 1125.472656 C 343.992188 1122.621094 341.386719 1121.417969 341.386719 1118.582031 C 341.386719 1115.242188 348.96875 1113.027344 376.542969 1108.3125 C 388.527344 1106.265625 402.5625 1103.09375 407.738281 1101.261719 C 413.417969 1099.253906 419.101562 1097.257812 424.789062 1095.269531 C 453.628906 1085.199219 486.945312 1067.707031 499.679688 1055.953125 C 504.007812 1051.957031 507.164062 1048.289062 506.695312 1047.804688 C 504.566406 1045.601562 494.316406 1044.65625 472.3125 1044.628906 C 459.238281 1044.609375 445.484375 1043.984375 441.753906 1043.238281 C 429.457031 1040.777344 421.867188 1038.207031 421.117188 1036.253906 C 420.292969 1034.105469 422.457031 1033.050781 432.425781 1030.742188 C 472.703125 1021.429688 489.1875 1016.253906 513.917969 1005.171875 C 544.800781 991.328125 568.867188 978.234375 588.945312 964.355469 C 600.605469 956.289062 624.054688 934.417969 624.054688 931.605469 C 624.054688 929.960938 622.675781 929.792969 615.203125 930.53125 C 610.335938 931.011719 604.464844 931.984375 602.152344 932.695312 C 596.851562 934.324219 550.109375 936.597656 542.941406 935.574219 C 535.929688 934.570312 532.570312 932.136719 534.300781 929.308594 C 535.5 927.34375 541.949219 924.964844 573.523438 914.839844 C 588.121094 910.15625 603.78125 902.523438 622.648438 890.890625 C 658.976562 868.492188 689.207031 841.488281 720.726562 803.28125 C 738.710938 781.484375 746.964844 769.3125 745.8125 766.304688 C 745.207031 764.730469 739.628906 764.441406 709.828125 764.441406 C 689.386719 764.441406 671.035156 763.835938 666.179688 763 C 653.886719 760.890625 641.882812 754.378906 641.882812 749.828125 C 641.882812 748.726562 647.515625 747.691406 663.332031 745.886719 C 704.492188 741.1875 738.5 730.546875 764.859375 714.113281 C 779.464844 705.011719 795.691406 686.085938 809.609375 661.929688 C 825.625 634.125 850.699219 587.695312 850.699219 585.84375 C 850.699219 584.269531 843.886719 584.753906 837.214844 586.808594 C 817.242188 592.953125 764.054688 602.714844 750.558594 602.714844 C 740.6875 602.714844 738.652344 601.933594 738.652344 598.164062 C 738.652344 594.636719 740.644531 593.433594 750.109375 591.242188 C 753.960938 590.351562 763.988281 587.085938 772.394531 583.984375 C 822.484375 565.496094 866.890625 535.460938 886.058594 507.097656 C 893.398438 496.234375 906.203125 469.652344 919.125 438.441406 C 931.753906 407.925781 936.261719 393.6875 933.769531 392.148438 C 933.195312 391.792969 929.941406 393.234375 926.542969 395.351562 C 915.890625 401.980469 868.46875 425.191406 855.335938 430.199219 C 831.277344 439.378906 826.398438 436.007812 842.515625 421.351562 C 865.347656 400.582031 883.332031 382.421875 890.375 373.015625 C 910.796875 345.742188 922.21875 320.144531 935.140625 272.691406 C 950.167969 217.515625 954.355469 178.867188 953.5625 102.757812 C 953.066406 54.964844 952.441406 48.765625 948.144531 48.765625 C 946.949219 48.765625 943.242188 54.707031 938.402344 64.367188 M 822.5 331.550781 C 820.792969 332.507812 791.171875 371.273438 770.015625 400.238281 C 767.203125 404.089844 761.089844 411.824219 756.429688 417.429688 C 751.769531 423.03125 740.019531 438.21875 730.320312 451.175781 C 707.355469 481.851562 698.582031 492.847656 668.328125 528.871094 C 654.609375 545.203125 640.902344 561.539062 627.207031 577.882812 C 618.40625 588.386719 603.851562 605.292969 594.859375 615.449219 C 585.871094 625.605469 576.046875 637.066406 573.03125 640.917969 C 570.019531 644.769531 561.5 655.050781 554.101562 663.761719 C 537.660156 683.136719 502.96875 726.082031 460.441406 779.722656 C 447.09375 796.550781 425.957031 824.535156 413.300781 842.121094 C 408.515625 848.773438 401.351562 858.515625 397.386719 863.769531 C 386.511719 878.179688 337.128906 954.691406 320.949219 982.199219 C 315.800781 990.953125 307.757812 1003.847656 303.082031 1010.851562 C 298.40625 1017.855469 292.773438 1027.1875 290.566406 1031.585938 C 288.363281 1035.988281 284.300781 1043.273438 281.542969 1047.777344 C 276.023438 1056.796875 236.980469 1133.355469 236.980469 1135.15625 C 236.980469 1138.328125 240.296875 1135.070312 249.089844 1123.277344 C 254.425781 1116.125 262.859375 1103.664062 267.835938 1095.582031 C 299.125 1044.773438 328.894531 999.121094 369.171875 940.175781 C 401.054688 893.511719 459.625 815.980469 512.027344 751.070312 C 517.683594 744.066406 524.097656 735.757812 526.28125 732.605469 C 528.464844 729.453125 535.5 720.285156 541.914062 712.230469 L 586.535156 656.199219 C 604.660156 633.433594 624.996094 608.222656 631.726562 600.167969 C 638.453125 592.113281 650.070312 577.785156 657.539062 568.332031 C 665.007812 558.875 679.296875 541.054688 689.289062 528.726562 C 699.28125 516.402344 712.292969 499.496094 718.207031 491.160156 C 725.011719 481.589844 731.867188 472.054688 738.773438 462.554688 C 744.167969 455.15625 752.476562 443.121094 757.234375 435.8125 C 761.992188 428.503906 769.105469 418.222656 773.046875 412.972656 C 776.984375 407.71875 784.921875 396.542969 790.6875 388.140625 C 796.453125 379.734375 803.929688 368.925781 807.300781 364.117188 C 813.414062 355.394531 826.019531 331.832031 825.074219 330.886719 C 824.800781 330.613281 823.644531 330.910156 822.503906 331.550781 M 135.339844 1264 C 134.589844 1264.902344 132.019531 1270.203125 129.628906 1275.777344 C 120.996094 1295.910156 107.871094 1320.523438 96.414062 1338.0625 C 76.4375 1368.648438 78.5625 1362.535156 78.253906 1390.3125 C 77.691406 1441.097656 74.746094 1467.652344 66.425781 1497 C 64.289062 1504.535156 62.539062 1511.554688 62.539062 1512.601562 C 62.539062 1516.238281 66.265625 1514.453125 70 1509.023438 C 75.636719 1500.832031 129.386719 1450 157.398438 1426.375 C 176 1410.6875 177.277344 1408.746094 179.042969 1393.519531 C 181.972656 1368.277344 190.546875 1336.503906 202.300781 1307.335938 C 205.453125 1299.503906 207.703125 1292.230469 207.292969 1291.167969 C 206.886719 1290.105469 203.800781 1288.417969 200.4375 1287.417969 C 185.777344 1283.0625 157.980469 1271.972656 150.171875 1267.367188 C 141.246094 1262.105469 137.597656 1261.273438 135.339844 1264 M 131.933594 1354.882812 C 122.015625 1360.101562 118.261719 1367.867188 120.945312 1377.597656 C 121.972656 1381.320312 121.753906 1383.777344 119.886719 1389.496094 C 114.585938 1405.699219 109.238281 1420.261719 104.550781 1431.238281 C 101.824219 1437.625 99.183594 1444.503906 98.683594 1446.519531 C 97.867188 1449.792969 97.992188 1450.003906 99.824219 1448.496094 C 100.953125 1447.5625 108.59375 1436.390625 116.796875 1423.664062 C 134.484375 1396.230469 138.429688 1390.972656 141.320312 1390.972656 C 143.574219 1390.972656 153.683594 1380.988281 156.445312 1376.027344 C 158.882812 1371.660156 158.488281 1361.171875 155.808594 1359.003906 C 147.972656 1352.660156 139.070312 1351.125 131.933594 1354.882812 "/></g></svg>